HIERARCHY
ROOT hip
{
  OFFSET 0 0 0
  CHANNELS 6 Xposition Yposition Zposition Zrotation Yrotation Xrotation
  JOINT abdomen
  {
    OFFSET 0 20.6881 -0.73152
    CHANNELS 3 Zrotation Xrotation Yrotation
    JOINT chest
    {
      OFFSET 0 11.7043 -0.48768
      CHANNELS 3 Zrotation Xrotation Yrotation
      JOINT neck
      {
        OFFSET 0 22.1894 -2.19456
        CHANNELS 3 Zrotation Xrotation Yrotation
        JOINT head
        {
          OFFSET -0.24384 7.07133 1.2192
          CHANNELS 3 Zrotation Xrotation Yrotation
          JOINT leftEye
          {
            OFFSET 4.14528 8.04674 8.04672
            CHANNELS 3 Zrotation Xrotation Yrotation
            End Site
            {
              OFFSET 1 0 0
            }
          }
          JOINT rightEye
          {
            OFFSET -3.6576 8.04674 8.04672
            CHANNELS 3 Zrotation Xrotation Yrotation
            End Site
            {
              OFFSET 1 0 0
            }
          }
        }
      }
      JOINT rCollar
      {
        OFFSET -2.68224 19.2634 -4.8768
        CHANNELS 3 Zrotation Xrotation Yrotation
        JOINT rShldr
        {
          OFFSET -8.77824 -1.95073 1.46304
          CHANNELS 3 Zrotation Xrotation Yrotation
          JOINT rForeArm
          {
            OFFSET -28.1742 -1.7115 0.48768
            CHANNELS 3 Zrotation Xrotation Yrotation
            JOINT rHand
            {
              OFFSET -22.5879 0.773209 7.07136
              CHANNELS 3 Zrotation Xrotation Yrotation
              JOINT rThumb1
              {
                OFFSET -1.2192 -0.487915 3.41376
                CHANNELS 3 Zrotation Xrotation Yrotation
                JOINT rThumb2
                {
                  OFFSET -3.37035 -0.52449 3.41376
                  CHANNELS 3 Zrotation Xrotation Yrotation
                  End Site
                  {
                    OFFSET -1.78271 -1.18214 1.43049
                  }
                }
              }
              JOINT rIndex1
              {
                OFFSET -7.75947 0.938293 5.60832
                CHANNELS 3 Zrotation Xrotation Yrotation
                JOINT rIndex2
                {
                  OFFSET -2.54057 -0.884171 1.56538
                  CHANNELS 3 Zrotation Xrotation Yrotation
                  End Site
                  {
                    OFFSET -1.62519 -0.234802 1.16502
                  }
                }
              }
              JOINT rMid1
              {
                OFFSET -8.24714 1.18213 3.41376
                CHANNELS 3 Zrotation Xrotation Yrotation
                JOINT rMid2
                {
                  OFFSET -3.10165 -0.590103 1.0647
                  CHANNELS 3 Zrotation Xrotation Yrotation
                  End Site
                  {
                    OFFSET -2.48547 -0.328903 0.83742
                  }
                }
              }
              JOINT rRing1
              {
                OFFSET -8.82822 0.546677 1.51678
                CHANNELS 3 Zrotation Xrotation Yrotation
                JOINT rRing2
                {
                  OFFSET -2.60934 -0.819778 -0.0198488
                  CHANNELS 3 Zrotation Xrotation Yrotation
                  End Site
                  {
                    OFFSET -2.33842 -0.294052 0.168128
                  }
                }
              }
              JOINT rPinky1
              {
                OFFSET -8.27202 -0.0477905 -0.4584
                CHANNELS 3 Zrotation Xrotation Yrotation
                JOINT rPinky2
                {
                  OFFSET -1.82734 -0.647385 -0.700984
                  CHANNELS 3 Zrotation Xrotation Yrotation
                  End Site
                  {
                    OFFSET -1.69225 -0.51767 -0.607171
                  }
                }
              }
            }
          }
        }
      }
      JOINT lCollar
      {
        OFFSET 2.68224 19.2634 -4.8768
        CHANNELS 3 Zrotation Xrotation Yrotation
        JOINT lShldr
        {
          OFFSET 8.77824 -1.95073 1.46304
          CHANNELS 3 Zrotation Xrotation Yrotation
          JOINT lForeArm
          {
            OFFSET 28.1742 -1.7115 0.48768
            CHANNELS 3 Zrotation Xrotation Yrotation
            JOINT lHand
            {
              OFFSET 22.5879 0.773209 7.07136
              CHANNELS 3 Zrotation Xrotation Yrotation
              JOINT lThumb1
              {
                OFFSET 1.2192 -0.487915 3.41376
                CHANNELS 3 Zrotation Xrotation Yrotation
                JOINT lThumb2
                {
                  OFFSET 3.37035 -0.52449 3.41376
                  CHANNELS 3 Zrotation Xrotation Yrotation
                  End Site
                  {
                    OFFSET 1.78271 -1.18214 1.43049
                  }
                }
              }
              JOINT lIndex1
              {
                OFFSET 7.75947 0.938293 5.60832
                CHANNELS 3 Zrotation Xrotation Yrotation
                JOINT lIndex2
                {
                  OFFSET 2.54057 -0.884171 1.56538
                  CHANNELS 3 Zrotation Xrotation Yrotation
                  End Site
                  {
                    OFFSET 1.62519 -0.234802 1.16502
                  }
                }
              }
              JOINT lMid1
              {
                OFFSET 8.24714 1.18213 3.41376
                CHANNELS 3 Zrotation Xrotation Yrotation
                JOINT lMid2
                {
                  OFFSET 3.10165 -0.590103 1.0647
                  CHANNELS 3 Zrotation Xrotation Yrotation
                  End Site
                  {
                    OFFSET 2.48547 -0.328903 0.83742
                  }
                }
              }
              JOINT lRing1
              {
                OFFSET 8.82822 0.546677 1.51678
                CHANNELS 3 Zrotation Xrotation Yrotation
                JOINT lRing2
                {
                  OFFSET 2.60934 -0.819778 -0.0198488
                  CHANNELS 3 Zrotation Xrotation Yrotation
                  End Site
                  {
                    OFFSET 2.33842 -0.294052 0.168128
                  }
                }
              }
              JOINT lPinky1
              {
                OFFSET 8.27202 -0.0477905 -0.4584
                CHANNELS 3 Zrotation Xrotation Yrotation
                JOINT lPinky2
                {
                  OFFSET 1.82734 -0.647385 -0.700984
                  CHANNELS 3 Zrotation Xrotation Yrotation
                  End Site
                  {
                    OFFSET 1.69225 -0.51767 -0.607171
                  }
                }
              }
            }
          }
        }
      }
    }
  }
  JOINT rButtock
  {
    OFFSET -8.77824 4.35084 1.2192
    CHANNELS 3 Zrotation Xrotation Yrotation
    JOINT rThigh
    {
      OFFSET 0 -1.70687 -2.19456
      CHANNELS 3 Zrotation Xrotation Yrotation
      JOINT rShin
      {
        OFFSET 0 -36.8199 0.73152
        CHANNELS 3 Zrotation Xrotation Yrotation
        JOINT rFoot
        {
          OFFSET 0.73152 -45.1104 -5.12064
          CHANNELS 3 Zrotation Xrotation Yrotation
          End Site
          {
            OFFSET -1.1221 -3.69964 12.103
          }
        }
      }
    }
  }
  JOINT lButtock
  {
    OFFSET 8.77824 4.35084 1.2192
    CHANNELS 3 Zrotation Xrotation Yrotation
    JOINT lThigh
    {
      OFFSET 0 -1.70687 -2.19456
      CHANNELS 3 Zrotation Xrotation Yrotation
      JOINT lShin
      {
        OFFSET 0 -36.8199 0.73152
        CHANNELS 3 Zrotation Xrotation Yrotation
        JOINT lFoot
        {
          OFFSET -0.73152 -45.1104 -5.12064
          CHANNELS 3 Zrotation Xrotation Yrotation
          End Site
          {
            OFFSET 1.1221 -3.69964 12.103
          }
        }
      }
    }
  }
}
MOTION
Frames:	6
Frame Time:	0.03333
-55.67100000000001 56.508 54.3558 6.434539 -20.011241 -3.143807 -12.857525 14.725478 -107.441513 5.335198 6.369013 113.346104 -13.561708 32.532774 -119.200741 34.530747 28.412595 78.01538 -0.002941 0.0 -0.001547 -0.002941 0.0 -0.001547 -159.219859 -48.107057 170.432906 -134.584959 -43.341287 -135.536253 135.987228 -17.619774 -170.334766 -104.640342 78.197462 87.754056 -10.640171 10.050801 2.542519 1.074594 0.210937 5.80668 171.179389 -64.977599 111.097454 -30.252381 49.492694 22.16118 -150.811827 19.27565 137.046381 -170.453327 -26.538546 143.896299 -145.099085 4.29792 179.518989 -1.14461 82.429344 13.330735 -139.684238 -3.28226 -136.817836 -5.99173 -18.108555 -9.132173 0.078723 0.469871 -0.105453 83.026904 -30.789129 146.325689 14.047 -3.877584 132.9422 178.297117 -17.233116 -144.178339 167.115896 -4.789592 -89.808473 -69.497035 -66.098913 -53.103809 -150.555233 -72.459197 -94.926495 -9.094887 12.624661 5.007424 -16.6475 -48.913191 2.226811 172.973367 -33.21837 -143.891643 0.001943 2.949832 -0.926921 156.817672 -33.049562 -175.745778 25.756535 -38.252793 24.811102 -3.740941 1.472933 -0.14582 0.000245 -0.001356 0.0001 -48.283495 -53.731515 -93.993589 -62.646718 24.863321 -35.177236 -34.346936 56.533223 124.057001 -179.9959 75.749401 -0.002823 -146.419656 66.617942 -140.361903 -66.699337 -15.819123 -138.590376 -125.54562 -74.757618 151.920565
-56.230199999999996 56.7403 54.684200000000004 6.452091 -19.968917 -2.224063 -14.943281 17.031512 -3.202446 7.367733 -9.614911 10.225647 -15.75466 23.185058 -61.560589 35.491192 -4.638865 29.852397 0.000542 -0.0 -0.003476 0.001136 0.0 0.000823 -138.715565 46.027029 142.893267 -38.098096 25.608428 19.033472 -175.262589 3.055187 -140.45796 -8.10126 39.384345 3.399972 -138.529904 20.537127 81.420163 -126.542883 -3.914379 63.377994 15.120273 -27.152173 -5.689576 0.169116 19.273888 3.716768 -165.963383 -23.539785 145.048429 3.277756 -0.349782 0.304948 -0.187353 9.708602 3.075693 1.774924 47.128572 9.608916 -165.198654 77.025449 -149.827737 -132.831037 -23.21384 -129.267912 0.559583 3.232786 -0.734733 -83.986496 27.437569 27.517044 175.448902 3.064658 -46.785202 174.52719 -1.798284 -142.574565 -179.739249 -17.715111 -89.226329 176.493798 -12.87225 -97.636967 15.847157 20.902814 -10.790361 -0.701651 11.466812 -1.659627 162.014542 -10.874109 -143.833801 165.581443 -11.680144 -143.549398 0.00869 -0.837355 0.263594 -11.501943 -43.906449 5.420644 71.927367 -51.806787 70.434703 7.276832 -22.421212 10.225654 0.000302 0.001386 0.000137 -51.9264 -52.927445 22.99134 53.5897 21.621606 -82.476722 133.942998 -26.076466 -28.061216 179.999812 75.749873 -3.2e-05 -145.619396 66.77895 -143.018732 -65.677408 -19.213475 -118.85061 174.839399 30.430832 93.199808
-56.7437 56.891999999999996 55.0257 6.594904 -19.759303 -1.501224 -17.12002 15.542276 52.684464 -1.957675 -12.520194 -46.770157 -15.999902 24.240399 -67.222048 37.163289 -1.753533 34.551754 -0.002833 0.0 -0.001037 -0.002833 0.0 -0.001037 -158.991457 -56.720201 172.505819 147.545951 57.130693 -127.356808 174.179793 5.09701 105.378461 159.917796 -28.929529 142.336531 -167.824493 -5.500471 89.853786 -149.335385 3.634742 76.056722 41.953358 -61.677408 2.134682 -115.131564 38.329801 95.498257 -23.303381 42.348914 18.164781 19.124421 -44.23054 0.301876 -17.032944 58.764129 30.657744 5.67562 14.764016 -0.537972 -4.8348 -11.218643 -4.530044 1.889071 -2.253795 -0.7105 141.125905 42.547293 -145.429543 105.032383 9.3598 -90.673164 -109.742713 -21.611627 80.518706 79.331239 64.640987 -57.727569 4.41691 4.298039 -0.840687 -44.815177 -63.238301 13.148481 69.592536 43.291309 -57.262261 171.44345 -21.565073 -113.121294 154.10049 11.736363 -139.401842 139.751415 42.535185 -127.5909 0.018604 -1.594264 0.502835 153.592959 -66.723935 177.616866 155.339319 49.728898 149.595786 -2.395913 1.894738 1.181359 -179.924464 75.749648 -0.059307 153.336612 8.717837 -82.430744 -57.393052 -1.417243 90.990873 112.388928 -21.192289 -23.340457 0.003565 0.000388 0.002165 10.683089 -4.329851 95.947095 65.690685 -1.952409 85.105001 -90.946879 -22.881095 -167.635889
-57.2024 56.9967 55.387699999999995 6.83782 -19.45028 -1.062562 -13.173842 14.610538 -68.953098 9.769355 0.98764 73.358543 -16.151996 26.735067 -80.495306 39.474652 5.956913 45.341779 0.002089 0.0 7.6e-05 0.001843 -0.0 -0.003611 3.022287 -23.910764 -4.721596 -122.363133 7.062476 161.852137 -178.014225 -21.471778 -142.348825 -9.220575 43.221188 4.062828 174.246783 -22.702608 88.110371 -82.893384 15.091841 27.698295 -156.771358 -27.203885 122.415447 19.370765 -14.919729 -10.880927 -0.190609 0.555143 0.107262 170.435848 -61.982958 135.08218 -145.092889 4.690998 179.39424 -29.751846 -73.590559 -50.659307 -142.123889 3.04738 -139.073228 3.143397 1.683285 -1.456875 3.065516 15.15792 -3.817384 -79.00534 21.138857 16.520301 7.0472 -1.467845 -99.618654 5.947056 -13.72644 4.067176 -176.726218 -20.496283 -88.673597 -143.450026 -55.855172 -104.099325 168.193526 -45.924395 -121.737066 -168.783139 -58.154483 -103.844864 -10.534433 -32.950074 3.26491 -5.041457 -5.825987 0.664053 -0.002101 2.357656 -0.740225 155.351852 2.370324 -171.540897 155.217543 49.255137 149.528465 8.733985 -21.220649 10.589938 -179.402578 75.74886 -0.46217 153.075945 8.076606 -90.43316 -58.878597 -11.623745 65.25019 104.002506 14.430052 -27.908638 -0.000499 -0.001688 -0.000133 12.72918 -3.690094 -99.211784 -52.076161 -16.018536 37.584495 168.606423 46.651553 -80.609064
-57.6195 57.0838 55.761300000000006 7.160055 -19.217862 -0.838018 -17.289019 11.433135 142.914964 -10.007565 -0.111001 -138.394379 -6.232412 36.046503 -162.224285 15.486416 45.351436 121.35948 3.9e-05 -0.0 -0.001485 3.9e-05 -0.0 -0.001485 -156.77282 -69.727395 177.371696 -140.214514 -18.854434 -149.578912 30.926773 67.469462 -98.20286 160.727277 -27.099261 143.035339 -174.322761 -11.983841 89.86257 -110.365229 15.187277 49.224887 -17.029173 22.085755 11.703663 26.630705 -25.201129 -0.581398 6.223523 -19.42343 -2.637077 -2.456991 15.344099 2.801754 -145.109633 -0.740608 -178.895371 -157.051099 53.683723 174.347712 -145.962645 14.605472 -142.519326 -101.23984 -47.766864 -100.050483 25.181123 55.059898 -27.466089 101.160304 -16.178107 -154.756438 -176.196788 4.520453 80.507769 11.810977 4.890644 1.819687 -169.319522 -26.845904 -86.711398 -24.668085 -73.655596 -13.378623 162.060616 -36.511101 -122.683153 167.172072 -30.772925 -118.313134 3.369018 9.254616 -2.046739 170.304134 -26.429353 -144.295028 145.045127 6.740876 -178.748194 -6.48393 -26.029147 13.046363 113.501072 -39.522344 111.517044 146.415364 11.18496 142.14201 -179.985782 75.750625 -0.012171 153.176031 7.814841 -85.494702 -71.564096 -5.248995 -67.841296 -133.961575 33.528501 -174.568054 179.988968 75.748976 0.007775 -147.603878 68.837211 140.774932 27.424842 -54.470203 92.143097 76.055175 -7.276882 151.306526
-58.0151 57.168600000000005 56.117 7.483952 -19.226185 -0.652415 -13.745285 12.878311 -89.790492 7.870616 3.94609 93.528269 -11.326064 34.583058 -133.545258 31.554844 35.440282 89.733314 0.000402 -0.0 -0.001132 0.000618 0.0 0.002526 -158.175077 -64.08409 174.837072 79.847408 60.456315 -64.159714 175.494415 -21.243543 103.498388 158.61567 -31.307925 141.414713 166.133672 -29.336365 85.620564 -177.247573 -16.37483 106.056386 34.574749 -55.434443 -1.998759 -145.89015 3.026417 112.086764 -155.524566 8.118568 140.345236 -175.220252 -38.809356 142.938085 -0.098094 -4.78594 -1.509244 -155.889007 -18.028321 173.996569 -23.29321 -36.265712 -22.395395 -134.453044 -18.797882 -132.919577 158.64793 -32.661266 -167.398527 -128.620178 7.313016 -167.02651 -178.456948 -3.061695 -43.936665 172.246927 4.926999 -141.548031 -147.419055 -40.831927 -76.850657 -162.940752 -62.687976 -122.932336 143.308084 -2.786432 -117.646206 164.537504 -19.013206 -119.223785 166.962437 -26.716872 -145.217233 9.849091 30.263446 -8.094445 145.116697 -0.161963 179.076726 -11.541958 19.571237 6.736947 -14.766512 51.321187 -11.787411 169.355828 72.550699 146.728298 179.936927 75.74933 0.047058 150.925313 7.358396 88.895337 58.882155 9.306997 -90.671809 125.780533 -19.866374 -24.86306 179.995636 75.749127 0.00384 -148.130425 70.669876 94.997838 55.162936 -22.674462 120.269442 85.978784 4.810305 156.967729
